<?xml version="1.0" standalone="no"?>
<!DOCTYPE svg PUBLIC "-//W3C//DTD SVG 20010904//EN"
 "http://www.w3.org/TR/2001/REC-SVG-20010904/DTD/svg10.dtd">
<svg version="1.0" xmlns="http://www.w3.org/2000/svg"
 width="524.000000pt" height="524.000000pt" viewBox="0 0 524.000000 524.000000"
 preserveAspectRatio="xMidYMid meet">
<metadata>
Created by potrace 1.14, written by Peter Selinger 2001-2017
</metadata>
<g transform="translate(0.000000,524.000000) scale(0.100000,-0.100000)"
fill="#000000" stroke="none">
<path d="M1360 5093 c0 -5 13 -21 28 -38 29 -31 32 -35 122 -156 117 -156 186
-296 230 -471 31 -120 35 -157 34 -308 -1 -146 -22 -251 -79 -396 -36 -90
-140 -300 -196 -391 -88 -145 -154 -251 -238 -380 -352 -540 -491 -814 -567
-1118 -57 -228 -53 -476 11 -700 33 -117 138 -326 222 -445 68 -95 250 -286
333 -351 167 -130 339 -192 615 -224 79 -9 273 -12 286 -4 8 5 -1 21 -27 49
-22 24 -43 48 -49 54 -29 32 -68 91 -117 176 -180 315 -248 569 -243 908 2 87
6 175 10 197 3 22 8 54 11 70 18 111 51 248 87 355 22 69 41 127 42 130 1 11
70 178 98 240 104 230 225 457 397 745 59 99 117 196 128 215 11 19 50 85 87
145 154 256 204 402 210 610 4 195 -34 348 -146 581 -66 136 -181 315 -267
414 -97 111 -34 99 -559 100 -255 0 -463 -3 -463 -7z"/>
<path d="M3720 5045 c-154 -159 -315 -428 -393 -657 -49 -143 -66 -250 -62
-383 4 -127 16 -200 52 -299 35 -99 58 -141 202 -383 69 -117 131 -221 136
-230 6 -10 42 -72 81 -138 229 -389 366 -670 465 -954 34 -96 94 -322 104
-391 4 -25 9 -54 11 -65 18 -87 24 -341 12 -465 -32 -323 -216 -729 -425 -937
l-45 -45 54 6 c51 6 56 10 136 94 151 158 268 327 362 523 46 97 113 282 123
339 3 14 10 43 15 65 34 129 48 388 30 555 -7 66 -34 206 -43 219 -2 4 -6 19
-9 33 -20 114 -167 447 -277 631 -16 26 -29 50 -29 53 0 2 -9 17 -19 32 -10
15 -60 95 -111 177 -50 83 -114 186 -142 230 -260 413 -376 659 -424 899 -13
68 -19 243 -10 296 2 14 10 59 16 100 27 165 112 361 226 520 37 52 70 97 73
100 10 8 87 104 95 118 6 10 -9 12 -74 10 l-81 -2 -49 -51z"/>
</g>
</svg>
